<svg viewBox="0 0 348 721" width="348" height="721" font-family="Poppins, system-ui, sans-serif" style="display:block;border-radius:46px">
        <defs>
          <clipPath id="s1-clip"><rect width="320" height="693" rx="32"/></clipPath>
          <radialGradient id="s1-vig" cx=".5" cy=".42" r=".78">
            <stop offset=".55" stop-color="#000" stop-opacity="0"/><stop offset="1" stop-color="#000" stop-opacity=".42"/>
          </radialGradient>
          <filter id="s1-cap" filterUnits="userSpaceOnUse" x="0" y="440" width="320" height="100">
            <feDropShadow dx="0" dy="1" stdDeviation="3" flood-color="#000" flood-opacity=".55"/>
          </filter>
        </defs>
        <rect width="348" height="721" rx="46" fill="#000"/>
        <g transform="translate(14,14)">
        <rect width="320" height="693" rx="32" fill="#111"/>
        <g clip-path="url(#s1-clip)">
          <rect y="56" width="320" height="637" fill="#C9D2C6"/>
          <rect y="56" width="320" height="250" fill="#D6DDD2"/>
          <circle cx="44" cy="168" r="54" fill="#DFE5DA" opacity=".7"/>
          <circle cx="280" cy="506" r="64" fill="#BCC7B9" opacity=".55"/>
          <path d="M0 566 H320 V693 H0 Z" fill="#B7C3B4"/>
          <ellipse cx="160" cy="574" rx="116" ry="24" fill="#A6B2A3" opacity=".5"/>
          <rect x="144" y="150" width="32" height="28" rx="5" fill="#C6A34A"/>
          <rect x="148" y="174" width="24" height="54" fill="#2F5233"/>
          <path d="M148 224 C138 244 114 262 114 296 V552 q0 26 26 26 h40 q26 0 26 -26 V296 c0-34-24-52-34-72 z" fill="#2F5233"/>
          <path d="M127 306 v226" stroke="#598656" stroke-width="9" opacity=".7" stroke-linecap="round"/>
          <rect x="114" y="318" width="92" height="150" fill="#E4DCC0"/>
          <g fill="#8A7F5E"><rect x="124" y="326" width="54" height="5" rx="2.5"/><rect x="124" y="336" width="34" height="4" rx="2"/></g>
          <g fill="#A99C77"><rect x="124" y="406" width="62" height="4" rx="2"/><rect x="124" y="416" width="46" height="4" rx="2"/><rect x="124" y="426" width="56" height="4" rx="2"/></g>
          <rect x="114" y="440" width="92" height="28" fill="#2F5233"/>
          <rect x="132" y="452" width="56" height="5" rx="2.5" fill="#E4DCC0"/>
          <rect x="118" y="348" width="84" height="48" rx="2" fill="#FFFDF7"/>
          <g fill="#1A1A1A"><rect x="124" y="354" width="2" height="28"/><rect x="128.3" y="354" width="1" height="28"/><rect x="131.6" y="354" width="3" height="28"/><rect x="136.9" y="354" width="1.4" height="28"/><rect x="140.6" y="354" width="2" height="28"/><rect x="144.9" y="354" width="1" height="28"/><rect x="148.2" y="354" width="3" height="28"/><rect x="153.5" y="354" width="1.4" height="28"/><rect x="157.2" y="354" width="1" height="28"/><rect x="160.5" y="354" width="2.6" height="28"/><rect x="165.4" y="354" width="1" height="28"/><rect x="168.7" y="354" width="2" height="28"/><rect x="173" y="354" width="1.4" height="28"/><rect x="176.7" y="354" width="3" height="28"/><rect x="182" y="354" width="1" height="28"/><rect x="185.3" y="354" width="2" height="28"/><rect x="189.6" y="354" width="1.4" height="28"/><rect x="193.3" y="354" width="2" height="28"/></g>
          <text x="160" y="391" font-size="7" fill="#1A1A1A" text-anchor="middle" letter-spacing=".9">8410010012047</text>
          <rect y="56" width="320" height="637" fill="url(#s1-vig)"/>
          <path d="M0 56 H320 V693 H0 Z M52 316 a8 8 0 0 0 -8 8 V420 a8 8 0 0 0 8 8 H268 a8 8 0 0 0 8 -8 V324 a8 8 0 0 0 -8 -8 Z" fill="#06140C" fill-opacity=".46" fill-rule="evenodd"/>
          <g stroke="#fff" stroke-width="3.4" fill="none" stroke-linecap="round">
            <path d="M44 342 V324 a8 8 0 0 1 8 -8 H72"/>
            <path d="M248 316 H268 a8 8 0 0 1 8 8 V342"/>
            <path d="M44 402 V420 a8 8 0 0 0 8 8 H72"/>
            <path d="M248 428 H268 a8 8 0 0 0 8 -8 V402"/>
          </g>
          <g fill="#fff" font-size="14.5" text-anchor="middle" filter="url(#s1-cap)">
            <text x="160" y="470">{{scan.hint.0}}</text>
            <text x="160" y="491">{{scan.hint.1}}</text>
            <text x="160" y="512">{{scan.hint.2}}</text>
          </g>
          <rect width="320" height="56" fill="#000"/>
          <path d="M28 22l-8 6 8 6" stroke="#fff" stroke-width="2.4" fill="none" stroke-linecap="round" stroke-linejoin="round"/>
          <text x="160" y="34" font-size="16" font-weight="700" fill="#fff" text-anchor="middle">{{scan.title}}</text>
          <rect x="78" y="74" width="164" height="40" rx="20" fill="#fff"/>
          <rect x="105" y="85" width="12" height="18" rx="2.4" fill="none" stroke="#16201A" stroke-width="1.8"/>
          <path d="M155 89h-5v10h5l6 5V84z" fill="#16201A"/>
          <path d="M163 89a5 5 0 0 1 0 10" stroke="#16201A" stroke-width="1.6" fill="none" stroke-linecap="round"/>
          <path d="M205 83h10v5l-3 4h-4l-3-4z" fill="#16201A"/><rect x="208.5" y="94" width="3" height="9" rx="1.5" fill="#16201A"/>
        </g>
        </g>
      </svg>