<?xml version="1.0" encoding="UTF-8"?>
<svg data-bbox="0 0 52 52" xmlns="http://www.w3.org/2000/svg" viewBox="0 0 52 52" height="52" width="52" data-type="color">
    <g>
        <path fill="#F5F5F5" d="M52 26c0 14.36-11.64 26-26 26S0 40.36 0 26 11.64 0 26 0s26 11.64 26 26" data-color="1"/>
        <path fill="#020206" d="M10 26.071c.032-.278.051-.56.071-.842.039-.562.078-1.127.216-1.67.461-1.822 2.165-3.11 4.06-3.22.27-.015.398-.11.526-.345 1.99-3.91 5.159-6.28 9.554-6.878a12.275 12.275 0 0 1 12.818 6.941c.095.204.207.267.43.283 2.452.157 4.315 2.088 4.315 4.506q0 .364.005.73c.008.808.017 1.614-.069 2.41-.255 2.45-2.69 4.256-5.175 3.88-.239-.032-.382 0-.525.204-1.943 2.748-4.586 4.444-7.914 5.103-.128.031-.287.141-.335.251-.573 1.178-1.799 1.79-3.057 1.508-1.21-.267-2.102-1.382-2.07-2.607.016-1.256.908-2.293 2.182-2.56 1.082-.22 2.245.299 2.818 1.288.111.204.223.236.43.189 4.331-.943 7.595-4.444 8.137-8.747.669-5.355-2.93-10.317-8.296-11.384-5.812-1.178-11.529 2.795-12.373 8.573-.334 2.246.048 4.35 1.115 6.36.414.785.191 1.335-.653 1.633-2.994 1.005-6.13-1.178-6.13-4.287v-1.303H10zm3.824-3.699c.055-.016.114-.035.187-.063-.619 2.667-.395 5.209.639 7.672-1.163.094-2.437-.88-2.564-2.104a20 20 0 0 1-.032-3.36c.064-.99.685-1.68 1.608-2.089.055-.023.106-.038.162-.056m23.596 7.625c1.034-2.48 1.258-5.021.638-7.689 1.09.363 1.83 1.037 1.925 2.099.112 1.162.112 2.34 0 3.486-.111 1.209-1.337 2.15-2.563 2.104M25.517 35.65c-.41.004-.74.3-.756.706 0 .409.334.754.748.754a.74.74 0 0 0 .733-.738.715.715 0 0 0-.725-.722m.327-18.45c4.378 0 7.913 3.187 8.264 7.27.366 4.255-2.612 7.977-6.895 8.62-1.003.157-1.99.095-2.978-.11a.94.94 0 0 0-.51.063c-.722.397-1.437.81-2.15 1.22q-.413.24-.827.476c-.669.377-1.401.047-1.497-.66a1.5 1.5 0 0 1 .064-.533l.717-2.638c.063-.204.032-.346-.112-.518-1.974-2.387-2.548-5.072-1.465-7.962 1.099-2.92 3.28-4.616 6.401-5.15.296-.049.61-.07.826-.083l.162-.012zm-3.798 14.613c.39-.215.743-.409 1.075-.623.398-.25.78-.282 1.226-.157.462.126.94.22 1.417.236 3.36.126 6.099-2.261 6.417-5.575.382-3.988-3.44-7.317-7.404-6.438-2.34.518-3.95 1.947-4.634 4.209-.7 2.308-.127 4.365 1.608 6.092.35.362.462.738.319 1.21-.112.376-.207.753-.319 1.209zm6.25-6.621c.016.534.43.942.971.942a.955.955 0 0 0 .971-.942.965.965 0 0 0-.955-.958.96.96 0 0 0-.987.958m-5.462.942c-.541 0-.971-.408-.971-.926 0-.534.446-.974.971-.974.526 0 .956.44.956.958s-.43.942-.956.942m2.245-.942c.016.534.43.942.972.942a.955.955 0 0 0 .971-.942.972.972 0 0 0-1.943 0" clip-rule="evenodd" fill-rule="evenodd" data-color="2"/>
    </g>
</svg>
